<?xml version="1.0" encoding="utf-8"?>
<!-- Generator: Adobe Illustrator 27.1.1, SVG Export Plug-In . SVG Version: 6.00 Build 0)  -->
<svg version="1.1" id="Layer_1" xmlns="http://www.w3.org/2000/svg" xmlns:xlink="http://www.w3.org/1999/xlink" x="0px" y="0px"
	 viewBox="0 0 300 300" style="enable-background:new 0 0 300 300;" xml:space="preserve">
<style type="text/css">
	.st0{fill:#FFFFFF;}
</style>
<g>
	<g>
		<path class="st0" d="M193.71,283.35c-14.17,0-28.08-4.55-40.94-13.5c-8.72-6.07-17.17-12.61-25.34-18.93
			c-2.71-2.1-5.43-4.2-8.15-6.28c-7.49-5.73-15.06-11.6-22.38-17.27c-3.89-3.01-7.78-6.03-11.67-9.03
			c-3.77-2.91-8.43-7.08-11.08-13.59c-3.62-8.88-2.04-17.57,4.44-24.48c7.83-8.34,17.96-11.81,28.74-9.94
			c-2.33-4.25-4.67-8.49-7.01-12.73c-3.25-5.9-6.52-11.79-9.79-17.68c-4.48-8.09-8.97-16.18-13.42-24.29
			c-8.21-14.94-3.26-32.61,11.53-41.1c15.32-8.79,33.3-4.27,41.82,10.53c5.7,9.89,11.25,20.02,16.62,29.82
			c1.34,2.44,2.68,4.88,4.02,7.32c6.5-3.4,13.57-4.44,20.83-3.03c8.5-8.19,18.38-11.09,28.1-8.34c4.7-4.79,11.82-7.89,19.37-8.31
			c8.67-0.47,16.66,2.69,21.96,8.67c1.12,1.26,2.57,2.9,3.73,5.04c2.25,4.17,4.52,8.33,6.8,12.49c6.19,11.34,12.6,23.07,18.55,34.87
			c5.98,11.87,9.22,24.76,9.64,38.32c0.61,20.09-6.25,37.44-20.4,51.56c-13.71,13.68-30.32,23.04-49.36,27.81
			C204.77,282.66,199.22,283.35,193.71,283.35z M187.29,149.3C187.29,149.31,187.29,149.31,187.29,149.3
			C187.29,149.31,187.29,149.31,187.29,149.3z M103.27,101L103.27,101L103.27,101z"/>
	</g>
	<g>
		<path class="st0" d="M115.54,70.91c-0.19,0-0.38,0-0.57-0.01c-7.07-0.22-13.16-4.96-15.15-11.8c-0.85-2.93-0.96-5.7-0.3-8.22
			l0.54-2.09c1.76-6.85,3.59-13.93,5.67-20.91c2.21-7.43,9.13-11.91,17.23-11.15c7.11,0.67,12.74,5.64,14.35,12.67
			c0.18,0.8,0.27,1.49,0.33,1.99l0.34,2.31l-0.85,3.46c-0.31,1.27-0.62,2.56-0.96,3.85c-0.4,1.53-0.8,3.06-1.2,4.6
			c-1.11,4.26-2.25,8.67-3.55,13.05C129.14,66.26,123.09,70.91,115.54,70.91z"/>
	</g>
	<g>
		<path class="st0" d="M146.09,92.78l-1.91-0.03c-6.45-0.2-11.61-3.23-14.53-8.53c-3.29-5.97-2.38-13.96,2.14-18.98
			c1.26-1.39,2.77-2.62,4.37-3.54l3.42-1.97c5-2.88,10.17-5.86,15.37-8.69c7.53-4.11,16.02-2.65,21.12,3.64
			c3.09,3.81,4.37,8.45,3.59,13.06c-0.79,4.72-3.64,8.81-8.02,11.52c-3.38,2.1-6.81,4.03-10.13,5.89c-1.46,0.82-2.93,1.64-4.38,2.48
			c-0.48,0.28-0.96,0.56-1.44,0.85c-1.11,0.66-2.37,1.41-3.74,2.11c-1.46,0.75-2.82,1.17-3.72,1.45c-0.14,0.04-0.28,0.09-0.4,0.13
			L146.09,92.78z M146.13,79.04L146.13,79.04C146.13,79.04,146.13,79.04,146.13,79.04z"/>
	</g>
	<g>
		<path class="st0" d="M57.95,103.87c-1.14,0-2.3-0.11-3.45-0.34c-2.4-0.47-4.57-1.09-6.67-1.7c-0.88-0.26-1.77-0.51-2.66-0.75
			c-2.59-0.69-5.19-1.37-7.79-2.05l-4.74-1.25c-6.92-1.83-11.5-6.75-12.55-13.5c-0.84-5.4,0.83-10.6,4.58-14.25
			c3.82-3.72,9.22-5.26,14.81-4.23c4.14,0.76,8.1,1.82,11.92,2.85c1.26,0.34,2.51,0.67,3.77,1c2.77,0.71,5.29,1.43,7.7,2.19
			c6.69,2.11,10.91,7.5,11.58,14.8l0.03,0.51c0.2,4.87-1.83,9.5-5.55,12.7C65.89,102.48,62.01,103.87,57.95,103.87z"/>
	</g>
	<g>
		<path class="st0" d="M43.68,150.12c-10.27,0-14.29-6.73-15.55-9.69c-2.74-6.41-1.41-13.31,3.47-18.01
			c1.47-1.42,3.05-2.62,4.69-3.56l0.61-0.35c5.36-3.09,10.9-6.29,16.48-9.32c2.62-1.43,5.74-2.33,8.77-2.54
			c7.09-0.5,13.65,3.85,15.95,10.57c2.22,6.49,0.66,13.01-4.17,17.45c-1.57,1.44-3.2,2.46-4.58,3.27l-1.17,0.68
			c-5.01,2.91-10.18,5.92-15.36,8.8c-1.92,1.07-3.81,1.67-4.83,2l-0.27,0.09l-1.43,0.54l-1.63,0.06
			C44.32,150.12,44,150.12,43.68,150.12z"/>
	</g>
	<g>
		<path class="st0" d="M79.64,75.49c-4.04,0-7.98-1.59-11.24-4.65c-1.86-1.75-3.01-3.7-3.78-4.99c-2.84-4.81-5.91-10.06-9.39-16.06
			c-0.59-1.02-1.46-2.61-2.1-4.5c-2.48-7.3,0.1-14.96,6.42-19.06c6.46-4.19,15.42-3.18,20.85,2.35c1.49,1.52,2.51,3.14,3.24,4.39
			l0.78,1.35c2.9,4.97,5.9,10.11,8.78,15.25c1.03,1.83,1.63,3.62,2,4.68c0.05,0.15,0.1,0.29,0.14,0.41l0.71,1.8l-0.03,1.89
			c-0.07,9.97-6.23,14.16-9.89,15.77C84.01,75.03,81.81,75.49,79.64,75.49z"/>
	</g>
	<g>
		<g>
			<path d="M128.56,188.19c-6.49-11.81-12.96-23.63-19.47-35.42c-7.72-13.99-15.5-27.95-23.2-41.96
				c-5.58-10.15-2.25-21.87,7.75-27.61c10.52-6.04,22.26-3.41,28.17,6.85c8.14,14.14,15.85,28.52,23.75,42.8
				c0.71,1.28,1.46,2.54,2.44,4.22c7.82-8.23,16.82-10.74,27.16-6.53c9.49-12.2,19.4-12.9,27.99-7.38c0.93-1.27,1.89-2.55,2.81-3.86
				c5.12-7.25,20.25-10.14,27.93-1.47c0.88,0.99,1.79,2.01,2.42,3.17c8.47,15.67,17.2,31.2,25.21,47.1
				c5.35,10.62,8.21,22.12,8.57,34.12c0.53,17.23-5.29,32.02-17.47,44.18c-12.55,12.52-27.64,20.91-44.73,25.19
				c-17.83,4.47-34.5,0.44-49.4-9.93c-11.34-7.89-22.14-16.55-33.12-24.95c-11.38-8.71-22.67-17.52-34.01-26.27
				c-3.34-2.58-6.3-5.45-7.94-9.45c-2.1-5.14-1.35-9.78,2.47-13.85c5.85-6.23,13.06-8.59,21.32-6.6c4.49,1.08,8.8,2.97,13.11,4.7
				c2.59,1.04,5.02,2.47,7.52,3.73C128.09,188.7,128.32,188.45,128.56,188.19z M258.63,204.55c0.1-13-3.9-24.98-9.71-36.32
				c-6.75-13.18-14.09-26.06-21.19-39.06c-0.64-1.16-1.31-2.34-2.16-3.35c-2.05-2.47-5.89-2.74-9.07-0.77
				c-2.96,1.84-3.74,4.35-2.31,7.67c0.53,1.22,1.3,2.34,1.8,3.56c1.37,3.35,0.49,6.07-2.39,7.69c-2.9,1.63-5.55,0.94-7.65-2.25
				c-1.46-2.22-2.57-4.67-3.95-6.94c-2.56-4.21-7.56-5.27-12.21-2.67c-4.49,2.52-6.07,6.99-3.96,11.39c0.86,1.8,1.96,3.49,2.79,5.3
				c1.66,3.63,0.88,6.39-2.17,8.15c-3.02,1.74-5.6,0.96-7.85-2.7c-2-3.26-3.8-6.65-5.6-10.03c-1.55-2.92-3.86-4.45-7.21-4.46
				c-8.19-0.05-12.51,7.15-8.56,14.29c2.33,4.23,4.77,8.4,6.93,12.72c2.01,4-0.32,7.91-4.65,8.28c-3.2,0.27-4.79-1.65-6.15-4.15
				c-4.77-8.77-9.61-17.51-14.44-26.26c-8.85-16.03-17.69-32.06-26.59-48.06c-2.86-5.15-7.55-6.42-12.6-3.61
				c-5.37,2.99-6.54,6.85-3.55,12.45c3.69,6.9,7.51,13.73,11.28,20.58c13.02,23.61,26.05,47.22,39.07,70.84
				c0.8,1.46,1.69,2.9,2.24,4.45c0.83,2.34,0.61,4.63-1.32,6.45c-1.77,1.65-3.89,1.83-6.06,1.03c-1.4-0.52-2.71-1.27-4.03-1.97
				c-7.07-3.72-14.09-7.54-21.22-11.15c-3.25-1.65-6.65-3.06-10.09-4.27c-3.58-1.25-6.9-0.43-9.69,2.22
				c-1.74,1.66-1.93,3.5-0.25,5.25c1.26,1.31,2.7,2.47,4.14,3.59c16.42,12.79,32.81,25.64,49.32,38.31
				c6.33,4.86,12.75,9.68,19.55,13.83c8.85,5.39,18.67,8.19,29.11,6.89c15.97-1.99,29.98-8.88,42.24-19.03
				C252.23,232.72,258.5,220.02,258.63,204.55z"/>
		</g>
		<g>
			<path d="M127.79,33.21c-0.42,1.7-0.83,3.48-1.3,5.24c-1.53,5.79-2.96,11.61-4.67,17.35c-1.06,3.57-3.44,5.2-6.54,5.11
				c-2.74-0.08-5.05-1.83-5.86-4.6c-0.27-0.93-0.46-2.03-0.22-2.93c1.95-7.57,3.87-15.15,6.1-22.64c0.9-3.04,3.6-4.34,6.71-4.05
				c2.84,0.27,4.88,2.08,5.54,4.95C127.66,32.12,127.7,32.62,127.79,33.21z"/>
		</g>
		<g>
			<path d="M144.49,82.75c-2.88-0.09-4.85-1.13-6.08-3.36c-1.24-2.26-0.87-5.59,0.81-7.46c0.55-0.61,1.21-1.15,1.92-1.56
				c6.18-3.55,12.34-7.14,18.6-10.55c3.39-1.85,6.59-1.27,8.57,1.16c2.63,3.24,1.95,7.38-1.93,9.78c-4.65,2.88-9.47,5.47-14.22,8.2
				c-1.58,0.91-3.12,1.9-4.74,2.72C146.4,82.2,145.27,82.47,144.49,82.75z"/>
		</g>
		<g>
			<path d="M64.51,87.56c0.16,3.94-3.59,7.04-8.1,6.16c-2.93-0.57-5.78-1.53-8.67-2.3c-4.18-1.11-8.36-2.2-12.54-3.3
				c-2.82-0.74-4.75-2.39-5.22-5.37c-0.71-4.57,2.79-8.01,7.7-7.11c5.06,0.93,10.02,2.41,15.01,3.69c2.41,0.62,4.81,1.29,7.18,2.04
				C62.73,82.28,64.21,84.33,64.51,87.56z"/>
		</g>
		<g>
			<path d="M44.25,140.11c-3.77,0.15-5.87-1.14-6.93-3.61c-1.03-2.41-0.83-4.91,1.22-6.88c0.83-0.8,1.76-1.53,2.75-2.1
				c5.59-3.23,11.19-6.46,16.86-9.55c1.4-0.76,3.1-1.24,4.69-1.35c2.68-0.19,4.98,1.43,5.8,3.83c0.87,2.53,0.6,4.95-1.47,6.85
				c-0.84,0.77-1.84,1.4-2.84,1.98c-5.44,3.16-10.88,6.33-16.38,9.39C46.54,139.45,44.91,139.86,44.25,140.11z"/>
		</g>
		<g>
			<path d="M86.03,58.26c-0.02,3.65-1.37,5.56-3.91,6.68c-2.62,1.15-4.91,0.46-6.87-1.39c-0.83-0.78-1.44-1.82-2.03-2.82
				c-3.13-5.3-6.24-10.63-9.33-15.96c-0.5-0.86-0.97-1.76-1.28-2.7c-1.01-2.97-0.04-5.88,2.4-7.46c2.49-1.62,6.1-1.24,8.26,0.96
				c0.69,0.7,1.24,1.56,1.74,2.42c3.19,5.47,6.38,10.93,9.48,16.45C85.28,55.85,85.71,57.46,86.03,58.26z"/>
		</g>
		<g>
			<path class="st0" d="M258.63,204.55c-0.13,15.46-6.41,28.17-18.16,37.9c-12.26,10.15-26.27,17.03-42.24,19.03
				c-10.44,1.3-20.26-1.5-29.11-6.89c-6.8-4.14-13.22-8.97-19.55-13.83c-16.52-12.67-32.9-25.51-49.32-38.31
				c-1.44-1.12-2.88-2.28-4.14-3.59c-1.68-1.75-1.49-3.59,0.25-5.25c2.79-2.65,6.11-3.47,9.69-2.22c3.44,1.21,6.84,2.62,10.09,4.27
				c7.13,3.61,14.15,7.43,21.22,11.15c1.32,0.7,2.64,1.45,4.03,1.97c2.17,0.8,4.29,0.63,6.06-1.03c1.94-1.81,2.16-4.11,1.32-6.45
				c-0.55-1.55-1.44-3-2.24-4.45c-13.02-23.62-26.05-47.22-39.07-70.84c-3.78-6.85-7.59-13.68-11.28-20.58
				c-2.99-5.59-1.83-9.45,3.55-12.45c5.05-2.81,9.73-1.54,12.6,3.61c8.9,16,17.74,32.04,26.59,48.06
				c4.83,8.74,9.66,17.48,14.44,26.26c1.36,2.5,2.95,4.42,6.15,4.15c4.34-0.37,6.66-4.28,4.65-8.28c-2.16-4.31-4.59-8.49-6.93-12.72
				c-3.95-7.14,0.37-14.34,8.56-14.29c3.35,0.02,5.65,1.54,7.21,4.46c1.8,3.38,3.59,6.77,5.6,10.03c2.25,3.66,4.83,4.44,7.85,2.7
				c3.05-1.76,3.83-4.52,2.17-8.15c-0.83-1.81-1.93-3.5-2.79-5.3c-2.11-4.4-0.52-8.87,3.96-11.39c4.65-2.61,9.65-1.55,12.21,2.67
				c1.38,2.28,2.49,4.72,3.95,6.94c2.1,3.19,4.74,3.88,7.65,2.25c2.88-1.62,3.77-4.34,2.39-7.69c-0.5-1.23-1.27-2.34-1.8-3.56
				c-1.44-3.32-0.65-5.83,2.31-7.67c3.18-1.97,7.02-1.7,9.07,0.77c0.84,1.01,1.52,2.19,2.16,3.35c7.1,13,14.44,25.88,21.19,39.06
				C254.73,179.57,258.73,191.56,258.63,204.55z"/>
		</g>
	</g>
</g>
</svg>
